<?xml version="1.0" encoding="UTF-8"?>
<svg version="1.1" xmlns="http://www.w3.org/2000/svg" width="512" height="512">
<path d="M0 0 C1.02040375 0.00215515 2.0408075 0.0043103 3.09213257 0.00653076 C17.71960524 0.05616648 32.07013838 0.30330288 46.4375 3.3125 C47.41235352 3.51117676 48.38720703 3.70985352 49.39160156 3.91455078 C97.7734774 14.03517194 141.76178269 35.9516877 177.4375 70.3125 C178.4265332 71.26068604 178.4265332 71.26068604 179.43554688 72.22802734 C188.92380305 81.37247479 197.6637044 90.66984009 205.4375 101.3125 C206.29556152 102.46355017 207.15363451 103.61459177 208.01171875 104.765625 C214.04986829 112.95680614 219.40845521 121.47054105 224.4375 130.3125 C224.80198242 130.94430176 225.16646484 131.57610352 225.54199219 132.22705078 C247.07231855 169.84336237 256.90009735 212.56515288 256.8125 255.625 C256.81168427 257.13927582 256.81168427 257.13927582 256.81085205 258.68414307 C256.77008601 275.19373539 255.86279309 291.11032001 252.4375 307.3125 C252.21787598 308.35438477 251.99825195 309.39626953 251.77197266 310.46972656 C241.67435215 356.76299311 219.31521242 399.17663721 186.4375 433.3125 C185.80537598 433.97185547 185.17325195 434.63121094 184.52197266 435.31054688 C175.37752521 444.79880305 166.08015991 453.5387044 155.4375 461.3125 C154.28644983 462.17056152 153.13540823 463.02863451 151.984375 463.88671875 C143.79474019 469.92427396 135.29211724 475.30707302 126.4375 480.3125 C125.73028809 480.7146875 125.02307617 481.116875 124.29443359 481.53125 C98.08992283 496.28461432 69.15196346 505.81460455 39.4375 510.3125 C38.31794922 510.48982666 37.19839844 510.66715332 36.04492188 510.84985352 C24.34407336 512.52748283 12.74373816 512.67090929 0.9375 512.625 C-0.59218414 512.62126877 -0.59218414 512.62126877 -2.152771 512.61746216 C-67.37098066 512.37126159 -129.46108535 487.67789108 -176.5625 442.3125 C-177.22185547 441.68037598 -177.88121094 441.04825195 -178.56054688 440.39697266 C-188.04880305 431.25252521 -196.7887044 421.95515991 -204.5625 411.3125 C-205.42056152 410.16144983 -206.27863451 409.01040823 -207.13671875 407.859375 C-213.17427396 399.66974019 -218.55707302 391.16711724 -223.5625 382.3125 C-223.9646875 381.60528809 -224.366875 380.89807617 -224.78125 380.16943359 C-237.8066741 357.03404164 -246.55551461 331.86287591 -251.875 305.875 C-252.02235596 305.15610596 -252.16971191 304.43721191 -252.3215332 303.6965332 C-255.27265207 288.16987908 -255.96957988 272.76936592 -255.9375 257 C-255.93695618 255.99048279 -255.93641235 254.98096558 -255.93585205 253.94085693 C-255.87044959 227.45390506 -253.17862657 200.46309901 -243.31460762 175.63346767 C-239.55724808 165.89751625 -238.69015104 157.25753791 -238.7578125 146.90234375 C-238.74652165 145.31236283 -238.73262358 143.72239854 -238.71627808 142.13246155 C-238.68071423 138.0110099 -238.67980514 133.89030697 -238.68695068 129.76873779 C-238.68787343 125.537752 -238.65486706 121.3070325 -238.625 117.07617188 C-238.57158521 108.82151175 -238.55490113 100.56732881 -238.5625 92.3125 C-236.74045044 92.36132324 -236.74045044 92.36132324 -234.8815918 92.41113281 C-230.32812518 92.51692609 -225.7770089 92.54217007 -221.22241211 92.54443359 C-219.26024781 92.55635968 -217.2980838 92.58946285 -215.33666992 92.64501953 C-203.50529817 93.36593344 -203.50529817 93.36593344 -193.04467773 88.85766602 C-190.16487881 85.94578659 -187.89983022 82.66618453 -185.5625 79.3125 C-184.16346631 77.77894084 -182.73219245 76.27379206 -181.26171875 74.80859375 C-180.60212158 74.13642822 -179.94252441 73.4642627 -179.26293945 72.77172852 C-171.46069586 64.93541813 -163.48853323 57.83240747 -154.5625 51.3125 C-153.41144983 50.45443848 -152.26040823 49.59636549 -151.109375 48.73828125 C-142.91974019 42.70072604 -134.41711724 37.31792698 -125.5625 32.3125 C-124.85528809 31.9103125 -124.14807617 31.508125 -123.41943359 31.09375 C-97.21475553 16.34029149 -68.27703614 6.81079666 -38.5625 2.3125 C-37.44367432 2.13517334 -36.32484863 1.95784668 -35.17211914 1.77514648 C-23.45014053 0.09373659 -11.82751024 -0.04484341 0 0 Z " fill="#FEE161" transform="translate(255.5625,-0.31250000000000006)"/>
<path d="M0 0 C-0.81082031 0.40089844 -1.62164062 0.80179688 -2.45703125 1.21484375 C-20.10972865 10.27752076 -32.21410476 22.84017541 -39 41.79296875 C-41.56169783 50.7219636 -41.65035802 59.76945164 -42 69 C-33.09 69 -24.18 69 -15 69 C-15.103125 66.6075 -15.20625 64.215 -15.3125 61.75 C-15.46913967 50.92531616 -11.88656631 42.31810292 -4.96484375 33.97265625 C-1.69979794 30.69462815 1.9828812 28.26473426 6 26 C6.99966797 25.39478516 6.99966797 25.39478516 8.01953125 24.77734375 C10.42973054 23.83132864 11.60217708 24.14363467 14 25 C13.52949219 25.87140625 13.05898437 26.7428125 12.57421875 27.640625 C11.94464168 28.84339911 11.31577435 30.0465449 10.6875 31.25 C10.07261719 32.41015625 9.45773438 33.5703125 8.82421875 34.765625 C3.37756531 46.63594698 3.55492089 58.65433011 3.6015625 71.4296875 C3.59953782 73.39356596 3.59662311 75.35744368 3.59286499 77.32131958 C3.58846645 81.414482 3.59479675 85.50744667 3.60888672 89.60058594 C3.62604533 94.83937597 3.61607965 100.07770708 3.59816933 105.31648064 C3.5873225 109.36228896 3.59078081 113.40798859 3.5985527 117.4538002 C3.60054869 119.38585592 3.59811662 121.31792161 3.59111404 123.24996567 C3.5834772 125.94669507 3.59513189 128.64268131 3.61181641 131.33935547 C3.60270737 132.52704277 3.60270737 132.52704277 3.59341431 133.73872375 C3.64842286 138.54912347 4.3803825 141.81516637 7 146 C10.41447395 148.92669196 13.51223431 149.53817141 18.0078125 149.3515625 C22.27860025 148.59789407 25.04848964 146.22331879 27.64590454 142.88392639 C29.42851454 139.087358 29.40156981 135.6517647 29.35302734 131.54467773 C29.35626762 130.28502449 29.35626762 130.28502449 29.35957336 128.99992371 C29.36265549 127.1802459 29.35906879 125.36054722 29.34955978 123.54089165 C29.33578279 120.6511432 29.34228373 117.76207872 29.35440063 114.87232971 C29.38529634 106.65759796 29.38058375 98.44302508 29.36035156 90.22827148 C29.34937081 85.19727046 29.36276293 80.16678111 29.39024734 75.13585091 C29.39565374 73.22829565 29.39171222 71.32068813 29.37784958 69.41317558 C29.28246015 56.12510557 29.95426256 44.25537531 39.8125 34.25 C40.60269531 33.43015625 41.39289063 32.6103125 42.20703125 31.765625 C43.09455078 30.89164063 43.09455078 30.89164063 44 30 C49.41245968 30.86457233 51.91519207 34.76270231 55 39 C58.09268763 44.36276782 61.14507056 49.70561503 61.09765625 56.01171875 C61.09515869 56.69451904 61.09266113 57.37731934 61.09008789 58.08081055 C61.08098389 58.94101807 61.07187988 59.80122559 61.0625 60.6875 C61.041875 63.430625 61.02125 66.17375 61 69 C69.91 69 78.82 69 88 69 C87.12551892 49.84978785 87.12551892 49.84978785 81 32 C80.59910156 31.15824219 80.19820312 30.31648438 79.78515625 29.44921875 C78.8944979 27.6140188 77.95444865 25.80284745 77 24 C84.21916046 24.37021336 89.40185215 28.76438441 94.6875 33.3125 C102.1142028 41.94353298 106.46802338 50.36987526 106.40063477 61.83105469 C106.40761383 62.67435837 106.4145929 63.51766205 106.42178345 64.38652039 C106.44163099 67.14840936 106.44125952 69.90992137 106.44140625 72.671875 C106.45318727 74.60143024 106.46655327 76.5309764 106.48143005 78.46051025 C106.51751073 83.52235225 106.53778979 88.58411362 106.55297852 93.64605713 C106.57787313 101.76154099 106.61743413 109.87684692 106.67487907 117.99216461 C106.69120223 120.82398147 106.69498439 123.6556297 106.69789124 126.48748779 C106.70766568 128.22050266 106.71792866 129.95351486 106.72875977 131.68652344 C106.72620682 132.47308823 106.72365387 133.25965302 106.72102356 134.0700531 C106.75751696 137.9501143 107.06026118 140.64116956 109 144 C109.16902104 146.93478677 109.232654 149.7709612 109.1953125 152.703125 C109.19106766 153.95980988 109.19106766 153.95980988 109.18673706 155.24188232 C109.17556349 157.91140163 109.15046421 160.5805825 109.125 163.25 C109.11496654 165.06249515 109.10584133 166.87499556 109.09765625 168.6875 C109.07733695 173.12523454 109.03818341 177.56223948 109 182 C97.12 182 85.24 182 73 182 C73 282.65 73 383.3 73 487 C75.31 487 77.62 487 80 487 C80 487.33 80 487.66 80 488 C73.12248813 488.20602319 66.69436639 487.71330265 59.9375 486.4375 C58.99849854 486.26186523 58.05949707 486.08623047 57.09204102 485.90527344 C13.017417 477.2738569 -27.83907503 458.19111199 -62 429 C-62.74894531 428.36320312 -63.49789062 427.72640625 -64.26953125 427.0703125 C-77.76520621 415.25297532 -90.43558025 402.51448412 -101 388 C-101.85649066 386.85005169 -102.71326433 385.70031411 -103.5703125 384.55078125 C-109.61034209 376.36065742 -114.99367614 367.85620382 -120 359 C-120.4021875 358.29278809 -120.804375 357.58557617 -121.21875 356.85693359 C-134.2441741 333.72154164 -142.99301461 308.55037591 -148.3125 282.5625 C-148.45985596 281.84360596 -148.60721191 281.12471191 -148.7590332 280.3840332 C-151.71015207 264.85737908 -152.40707988 249.45686592 -152.375 233.6875 C-152.37445618 232.67798279 -152.37391235 231.66846558 -152.37335205 230.62835693 C-152.30794959 204.14140506 -149.61612657 177.15059901 -139.75210762 152.32096767 C-135.99474808 142.58501625 -135.12765104 133.94503791 -135.1953125 123.58984375 C-135.18402165 121.99986283 -135.17012358 120.40989854 -135.15377808 118.81996155 C-135.11821423 114.6985099 -135.11730514 110.57780697 -135.12445068 106.45623779 C-135.12537343 102.225252 -135.09236706 97.9945325 -135.0625 93.76367188 C-135.00908521 85.50901175 -134.99240113 77.25482881 -135 69 C-133.17795044 69.04882324 -133.17795044 69.04882324 -131.3190918 69.09863281 C-126.76562518 69.20442609 -122.2145089 69.22967007 -117.65991211 69.23193359 C-115.69774781 69.24385968 -113.7355838 69.27696285 -111.77416992 69.33251953 C-99.94279817 70.05343344 -99.94279817 70.05343344 -89.48217773 65.54516602 C-86.60237881 62.63328659 -84.33733022 59.35368453 -82 56 C-80.60096631 54.46644084 -79.16969245 52.96129206 -77.69921875 51.49609375 C-77.03962158 50.82392822 -76.38002441 50.1517627 -75.70043945 49.45922852 C-67.89819586 41.62291813 -59.92603323 34.51990747 -51 28 C-49.84894983 27.14193848 -48.69790823 26.28386549 -47.546875 25.42578125 C-36.19691127 17.05837119 -24.15204787 10.05835844 -11.75 3.375 C-10.51600464 2.69920898 -10.51600464 2.69920898 -9.25708008 2.00976562 C-8.4864624 1.60177734 -7.71584473 1.19378906 -6.921875 0.7734375 C-6.23706055 0.40653809 -5.55224609 0.03963867 -4.84667969 -0.33837891 C-3 -1 -3 -1 0 0 Z " fill="#FE526C" transform="translate(152,23)"/>
<path d="M0 0 C0.94166016 -0.00773437 1.88332031 -0.01546875 2.85351562 -0.0234375 C7.15736604 -0.0114574 11.08956927 0.14974226 15.25390625 1.28515625 C18.8046842 2.21521156 21.20501777 2.3616091 24.8125 1.9375 C25.73804688 1.83824219 26.66359375 1.73898438 27.6171875 1.63671875 C29.9544444 1.36406357 29.9544444 1.36406357 31.9375 0.25 C51.66637363 -1.49846423 69.70022123 1.095881 85.73828125 13.3984375 C98.89500397 24.64443285 107.3170608 39.08895915 109.9375 56.25 C110.23967519 60.2942217 110.30754429 64.32841687 110.3515625 68.3828125 C110.38061172 70.05958572 110.38061172 70.05958572 110.4102478 71.77023315 C110.46954289 75.30508028 110.51622733 78.83996087 110.5625 82.375 C110.60072591 84.78647174 110.63978025 87.1979305 110.6796875 89.609375 C110.77520268 95.48946724 110.86039342 101.36963908 110.9375 107.25 C111.67427979 106.77151611 112.41105957 106.29303223 113.17016602 105.80004883 C114.14655029 105.17122803 115.12293457 104.54240723 116.12890625 103.89453125 C117.09256104 103.27167236 118.05621582 102.64881348 119.04907227 102.00708008 C133.64460885 93.12836511 150.71829203 92.75208831 167.10546875 95.8671875 C172.52856415 96.6002404 177.76522405 95.97409198 182.9375 94.25 C200.45639056 92.57263683 218.30324917 95.2457032 232.46923828 106.46289062 C246.5332843 118.20944327 256.34754641 132.82381634 258.9375 151.25 C259.47981487 157.91803627 259.38516827 164.61974194 259.37109375 171.3046875 C259.3756645 173.21990136 259.3809727 175.13511359 259.38697815 177.05032349 C259.39585682 181.03915123 259.39354252 185.02777814 259.38354492 189.01660156 C259.37200239 194.11748147 259.39237396 199.21767449 259.42146206 204.31846428 C259.43982707 208.26309569 259.439532 212.20756205 259.43382454 216.15222549 C259.43367168 218.03322444 259.43968664 219.91423483 259.45211601 221.79519272 C259.46704775 224.42233133 259.45633721 227.04819346 259.43920898 229.67529297 C259.44887695 230.44321671 259.45854492 231.21114044 259.46850586 232.00233459 C259.39375906 237.49666469 258.07563136 240.71867503 254.9375 245.25 C250.86213084 248.18805683 247.04427029 248.84231396 242.12109375 248.66796875 C238.23876272 247.9248392 236.58851183 246.15964713 233.9375 243.25 C231.66308409 238.94933812 231.65631035 234.80944752 231.68212891 230.05419922 C231.67669823 228.8360276 231.67669823 228.8360276 231.67115784 227.59324646 C231.66427926 225.83414709 231.66175551 224.07502645 231.66310501 222.31591415 C231.66407344 219.52313695 231.65108844 216.73074131 231.63412476 213.9380188 C231.58796306 205.99907419 231.56327283 198.06016799 231.55664062 190.12109375 C231.55160004 185.25869456 231.52721796 180.39669203 231.49131393 175.53442764 C231.48157119 173.69026201 231.47915353 171.84604142 231.48448563 170.00185776 C231.52266125 156.14240791 230.32630494 144.25542036 220.9375 133.25 C216.27613167 128.87316762 212.09815198 126.08226287 205.9375 124.25 C206.64326172 125.57451172 206.64326172 125.57451172 207.36328125 126.92578125 C207.99274402 128.13773195 208.62161813 129.34998851 209.25 130.5625 C209.55873047 131.13806641 209.86746094 131.71363281 210.18554688 132.30664062 C216.2565655 144.12915057 216.32254689 155.4627695 216.125 168.4375 C216.10992146 170.1699102 216.09623868 171.90233314 216.08398438 173.63476562 C216.05381467 177.84042249 215.99505425 182.04427672 215.9375 186.25 C207.0275 186.25 198.1175 186.25 188.9375 186.25 C188.90011719 183.98382813 188.86273438 181.71765625 188.82421875 179.3828125 C188.77782927 177.15518273 188.72665966 174.92770953 188.67504883 172.70019531 C188.64207045 171.16806791 188.61395689 169.63582691 188.59106445 168.10351562 C188.39093174 155.0565663 187.13519802 144.81361593 178.9375 134.25 C178.50050781 133.68667969 178.06351563 133.12335938 177.61328125 132.54296875 C176.28655964 130.93024787 176.28655964 130.93024787 173.9375 129.25 C171.03249416 129.45516895 169.38709448 129.89375353 167.09375 131.7109375 C159.05991655 140.9953205 155.79626977 150.37943369 155.77978516 162.54101562 C155.77470444 163.36276779 155.76962372 164.18451996 155.76438904 165.03117371 C155.75371556 166.80993089 155.74508362 168.58870126 155.73826981 170.36747742 C155.72644712 173.18373558 155.70698741 175.99984272 155.68515015 178.81604004 C155.62363429 186.82115665 155.56944459 194.82625522 155.53613281 202.83154297 C155.515191 207.73278724 155.47989774 212.63375152 155.43537521 217.53483582 C155.42121793 219.40069791 155.41249339 221.26660948 155.40932083 223.13252258 C155.40441323 225.74164172 155.38126142 228.35001648 155.35400391 230.95898438 C155.35851311 232.11245613 155.35851311 232.11245613 155.3631134 233.28923035 C155.27775383 238.78994396 153.96171959 241.88841047 150.4375 246 C147.20787369 248.69135526 143.3165398 248.69814732 139.296875 248.671875 C135.21196734 247.94146105 132.5133685 245.40083914 129.9375 242.25 C128.65400491 238.39951472 128.78182956 234.75948609 128.77636719 230.74633789 C128.77140228 229.8776004 128.76643738 229.00886292 128.76132202 228.11380005 C128.74669423 225.23341074 128.73989463 222.35307664 128.734375 219.47265625 C128.72862065 217.46544901 128.72286296 215.45824177 128.71710205 213.45103455 C128.70658798 209.23517603 128.70074909 205.01933658 128.69726562 200.8034668 C128.69180356 195.42717253 128.66782644 190.05113442 128.63929367 184.67492008 C128.62056857 180.52336419 128.61545629 176.37186851 128.61392975 172.22027397 C128.61092101 170.24013315 128.60295331 168.25999293 128.58974457 166.27989388 C128.50719272 152.94423802 128.79549297 140.85499333 135.625 129 C136.24761719 127.90171875 136.87023437 126.8034375 137.51171875 125.671875 C137.98222656 124.87265625 138.45273437 124.0734375 138.9375 123.25 C126.91428676 128.83390338 119.25374377 135.35347186 114.58973694 148.02287292 C113.52966985 151.64257611 113.45790554 155.15502359 113.42578125 158.90625 C113.40783005 159.69398804 113.38987885 160.48172607 113.37138367 161.29333496 C113.31773695 163.77883749 113.28353384 166.2641532 113.25 168.75 C113.21678643 170.44794242 113.1822931 172.14586032 113.14648438 173.84375 C113.05965636 177.97918671 112.99920244 182.11380906 112.9375 186.25 C104.0275 186.25 95.1175 186.25 85.9375 186.25 C85.88851562 183.55328125 85.83953125 180.8565625 85.7890625 178.078125 C85.73503718 175.4634857 85.67773579 172.84893729 85.62011719 170.234375 C85.58185809 168.41868879 85.54699983 166.60292759 85.515625 164.78710938 C85.4699077 162.17550877 85.41192464 159.56442312 85.3515625 156.953125 C85.33423569 155.73728729 85.33423569 155.73728729 85.31655884 154.49688721 C85.32575561 150.34029391 85.32575561 150.34029391 83.93254089 146.51922607 C82.43237504 143.0980446 82.67120857 139.6704429 82.69799805 136 C82.69497681 134.75519615 82.69497681 134.75519615 82.69189453 133.48524475 C82.68835154 131.68410576 82.68911303 129.88295433 82.69367027 128.08181763 C82.69927432 125.22163655 82.69008445 122.36185945 82.6764679 119.50170898 C82.63940197 111.36977431 82.62074355 103.23797385 82.63208008 95.10595703 C82.6379671 90.12794726 82.61949128 85.15050208 82.58619118 80.17260742 C82.57828798 78.28460265 82.57944445 76.39653551 82.59021568 74.50854492 C82.64888755 63.75434887 82.34249605 54.89071636 76.9375 45.25 C76.35406075 44.20150879 76.35406075 44.20150879 75.75883484 43.13183594 C72.00209755 36.82240375 65.0971236 32.05483437 58.1171875 30.05078125 C57.06789063 29.78652344 56.01859375 29.52226563 54.9375 29.25 C55.41960937 30.19101562 55.90171875 31.13203125 56.3984375 32.1015625 C57.0366747 33.35926522 57.6746834 34.61708392 58.3125 35.875 C58.62960938 36.49246094 58.94671875 37.10992187 59.2734375 37.74609375 C65.2156332 49.50668941 65.04481291 60.37245033 64.9375 73.25 C56.0275 73.25 47.1175 73.25 37.9375 73.25 C37.855 70.65125 37.7725 68.0525 37.6875 65.375 C37.07589858 53.5868579 33.62768438 44.6516431 24.9375 36.25 C22.80317641 35.42672119 22.80317641 35.42672119 20.9375 35.25 C19.68706057 36.47871963 18.46356205 37.73484474 17.25 39 C16.56550781 39.69609375 15.88101563 40.3921875 15.17578125 41.109375 C7.80028967 51.4582323 7.23598656 61.38060734 7.34591484 73.63261032 C7.37159541 76.51728896 7.36645462 79.40055738 7.35401917 82.28530884 C7.33340933 88.39869906 7.35290496 94.51163958 7.375 100.625 C7.39614973 107.73548325 7.40066336 114.84550864 7.37449837 121.95598221 C7.37114649 124.79132812 7.39231689 127.6257881 7.41490173 130.46102905 C7.41239049 132.2010721 7.40883048 133.94111405 7.40405273 135.68115234 C7.41693832 136.46359314 7.42982391 137.24603394 7.44309998 138.05218506 C7.39571486 143.23464711 6.32440174 146.11992145 2.9375 150.25 C-0.98693477 153.63928457 -4.0102511 154.9250812 -9.10546875 154.6328125 C-12.48998526 153.97077135 -14.50730429 152.50807993 -17.0625 150.25 C-20.20287462 145.26893125 -20.49436624 141.28494238 -20.45068359 135.58935547 C-20.45594055 134.73968704 -20.46119751 133.89001862 -20.46661377 133.01460266 C-20.47977831 130.2152752 -20.47108351 127.41652044 -20.4609375 124.6171875 C-20.46296038 122.65910738 -20.46587359 120.70102799 -20.46963501 118.74295044 C-20.47405452 114.63910753 -20.46764342 110.5354607 -20.45361328 106.43164062 C-20.43658958 101.19999351 -20.44632164 95.9688105 -20.46433067 90.73718071 C-20.47523667 86.69111721 -20.47168994 82.64516136 -20.4639473 78.59909439 C-20.46196053 76.67199777 -20.46435035 74.74489104 -20.47138596 72.81780624 C-20.50963131 59.38906348 -19.78737866 47.59882765 -13.375 35.5 C-13.05466797 34.88640625 -12.73433594 34.2728125 -12.40429688 33.640625 C-11.63507705 32.17107071 -10.8505631 30.70953605 -10.0625 29.25 C-15.32078177 30.08073549 -18.73098954 32.29750103 -23.0625 35.25 C-23.92875 35.806875 -24.795 36.36375 -25.6875 36.9375 C-29.36662035 40.5198014 -31.66830746 44.73760253 -34.0625 49.25 C-34.39636719 49.86617187 -34.73023438 50.48234375 -35.07421875 51.1171875 C-38.18177484 57.93865208 -37.75711556 65.92077337 -38.0625 73.25 C-46.9725 73.25 -55.8825 73.25 -65.0625 73.25 C-65.6822022 53.10967851 -61.99672414 36.42770186 -48.45703125 20.77734375 C-42.38864687 14.37237688 -35.8109247 9.87372033 -28 5.875 C-27.351521 5.54089111 -26.70304199 5.20678223 -26.03491211 4.86254883 C-17.53289158 0.71665329 -9.37187682 -0.07729383 0 0 Z " fill="#F1F0F5" transform="translate(175.0625,18.75)"/>
<path d="M0 0 C0.97485352 0.19867676 1.94970703 0.39735352 2.95410156 0.60205078 C51.3359774 10.72267194 95.32428269 32.6391877 131 67 C131.9890332 67.94818604 131.9890332 67.94818604 132.99804688 68.91552734 C142.48630305 78.05997479 151.2262044 87.35734009 159 98 C159.85806152 99.15105017 160.71613451 100.30209177 161.57421875 101.453125 C167.61236829 109.64430614 172.97095521 118.15804105 178 127 C178.36448242 127.63180176 178.72896484 128.26360352 179.10449219 128.91455078 C200.63481855 166.53086237 210.46259735 209.25265288 210.375 252.3125 C210.37418427 253.82677582 210.37418427 253.82677582 210.37335205 255.37164307 C210.30185911 284.32514148 206.16211013 312.74163399 196 340 C195.67 340 195.34 340 195 340 C195 294.46 195 248.92 195 202 C174.21 202 153.42 202 132 202 C131.6875 185.3125 131.6875 185.3125 131.61206055 180.1340332 C131.36935584 168.16082858 130.08622927 156.73591908 124.5 145.9375 C124.15888184 145.27049072 123.81776367 144.60348145 123.46630859 143.91625977 C115.72802819 129.54492204 103.08054234 119.85631303 88 114 C87.20722656 113.67902344 86.41445313 113.35804687 85.59765625 113.02734375 C79.23253282 110.86541399 72.97001949 110.7226853 66.3125 110.6875 C65.42127441 110.68194092 64.53004883 110.67638184 63.61181641 110.6706543 C59.45374206 110.71592646 55.66306793 110.96240079 51.63671875 112.0390625 C48.46946805 112.87595151 46.65425062 113.19096693 43.5 112.6875 C42.74074219 112.57921875 41.98148438 112.4709375 41.19921875 112.359375 C40.11060547 112.18148437 40.11060547 112.18148437 39 112 C17.85870894 108.7750573 1.00129977 113.15281915 -17 124 C-17.00586624 123.37740799 -17.01173248 122.75481598 -17.01777649 122.11335754 C-17.08220988 115.57439178 -17.16675183 109.0358957 -17.26245117 102.49731445 C-17.29550007 100.06410962 -17.32359285 97.63083181 -17.34643555 95.19750977 C-17.38035241 91.67953681 -17.43268453 88.16222074 -17.48828125 84.64453125 C-17.49786613 83.03902153 -17.49786613 83.03902153 -17.50764465 81.40107727 C-17.85760339 63.0122634 -24.19587442 47.31038425 -37 34 C-49.70958919 21.7996431 -65.88093525 16.41336703 -83.25 16.6875 C-84.28640625 16.68427734 -85.3228125 16.68105469 -86.390625 16.67773438 C-92.00486244 16.71711997 -96.68617109 17.20526308 -102 19 C-105.5760358 19.30434347 -108.04918952 18.98602384 -111.51953125 18 C-116.59583047 16.7032326 -121.53547493 16.69962681 -126.75 16.75 C-128.19947021 16.75580078 -128.19947021 16.75580078 -129.67822266 16.76171875 C-136.62618312 16.84572432 -143.21923984 17.39779507 -150 19 C-136.5869605 8.08976999 -113.64073897 4.42533541 -97 1 C-95.99888184 0.78972168 -94.99776367 0.57944336 -93.96630859 0.36279297 C-64.30132843 -5.57772866 -29.66817363 -6.21390238 0 0 Z " fill="#374266" transform="translate(302,3)"/>
<path d="M0 0 C19.14 0 38.28 0 58 0 C58 113.85 58 227.7 58 345 C19.82789404 312.28105204 -3.38462925 262.06423543 -13.3125 213.5625 C-13.45985596 212.84360596 -13.60721191 212.12471191 -13.7590332 211.3840332 C-16.71015207 195.85737908 -17.40707988 180.45686592 -17.375 164.6875 C-17.37445618 163.67798279 -17.37391235 162.66846558 -17.37335205 161.62835693 C-17.30794959 135.14140506 -14.61612657 108.15059901 -4.75210762 83.32096767 C-0.99474808 73.58501625 -0.12765104 64.94503791 -0.1953125 54.58984375 C-0.18402165 52.99986283 -0.17012358 51.40989854 -0.15377808 49.81996155 C-0.11821423 45.6985099 -0.11730514 41.57780697 -0.12445068 37.45623779 C-0.12553655 32.47727626 -0.08210094 27.49851444 -0.04641724 22.51970673 C0.00254617 15.01275578 -0.00387096 7.50771728 0 0 Z " fill="#E73150" transform="translate(17,92)"/>
<path d="M0 0 C19.14 0 38.28 0 58 0 C58 100.65 58 201.3 58 305 C60.31 305 62.62 305 65 305 C65 305.33 65 305.66 65 306 C58.12205975 306.20603602 51.69491986 305.71169179 44.9375 304.4375 C43.54204956 304.17948608 43.54204956 304.17948608 42.1184082 303.91625977 C27.45818328 301.0677862 13.1527666 296.71758887 -1 292 C-0.67 195.64 -0.34 99.28 0 0 Z " fill="#F58D2C" transform="translate(167,205)"/>
<path d="M0 0 C15.81068383 11.05122688 26.9012811 26.67805101 30.37119865 45.80359077 C31.39623991 53.09623048 31.1092173 60.56759273 31.09375 67.9140625 C31.09832075 69.82927636 31.10362895 71.74448859 31.1096344 73.65969849 C31.11851307 77.64852623 31.11619877 81.63715314 31.10620117 85.62597656 C31.09465864 90.72685647 31.11503021 95.82704949 31.14411831 100.92783928 C31.16248332 104.87247069 31.16218825 108.81693705 31.15648079 112.76160049 C31.15632793 114.64259944 31.16234289 116.52360983 31.17477226 118.40456772 C31.189704 121.03170633 31.17899346 123.65756846 31.16186523 126.28466797 C31.17636719 127.43655357 31.17636719 127.43655357 31.19116211 128.61170959 C31.11641531 134.10603969 29.79828761 137.32805003 26.66015625 141.859375 C22.58478709 144.79743183 18.76692654 145.45168896 13.84375 145.27734375 C9.96141897 144.5342142 8.31116808 142.76902213 5.66015625 139.859375 C3.38574034 135.55871312 3.3789666 131.41882252 3.40478516 126.66357422 C3.4011647 125.85145981 3.39754425 125.0393454 3.39381409 124.20262146 C3.38693551 122.44352209 3.38441176 120.68440145 3.38576126 118.92528915 C3.38672969 116.13251195 3.37374469 113.34011631 3.35678101 110.5473938 C3.31061931 102.60844919 3.28592908 94.66954299 3.27929688 86.73046875 C3.27425629 81.86806956 3.24987421 77.00606703 3.21397018 72.14380264 C3.20422744 70.29963701 3.20180978 68.45541642 3.20714188 66.61123276 C3.2453175 52.75178291 2.04896119 40.86479536 -7.33984375 29.859375 C-12.00121208 25.48254262 -16.17919177 22.69163787 -22.33984375 20.859375 C-21.86933594 21.74238281 -21.39882813 22.62539062 -20.9140625 23.53515625 C-20.28459973 24.74710695 -19.65572562 25.95936351 -19.02734375 27.171875 C-18.71861328 27.74744141 -18.40988281 28.32300781 -18.09179688 28.91601562 C-12.02077825 40.73852557 -11.95479686 52.0721445 -12.15234375 65.046875 C-12.16742229 66.7792852 -12.18110507 68.51170814 -12.19335938 70.24414062 C-12.22352908 74.44979749 -12.2822895 78.65365172 -12.33984375 82.859375 C-21.24984375 82.859375 -30.15984375 82.859375 -39.33984375 82.859375 C-39.37722656 80.59320313 -39.41460937 78.32703125 -39.453125 75.9921875 C-39.49951448 73.76455773 -39.55068409 71.53708453 -39.60229492 69.30957031 C-39.6352733 67.77744291 -39.66338686 66.24520191 -39.6862793 64.71289062 C-39.88641201 51.6659413 -41.14214573 41.42299093 -49.33984375 30.859375 C-49.77683594 30.29605469 -50.21382813 29.73273438 -50.6640625 29.15234375 C-51.99078411 27.53962287 -51.99078411 27.53962287 -54.33984375 25.859375 C-57.24484959 26.06454395 -58.89024927 26.50312853 -61.18359375 28.3203125 C-69.2174272 37.6046955 -72.48107398 46.98880869 -72.49755859 59.15039062 C-72.50263931 59.97214279 -72.50772003 60.79389496 -72.51295471 61.64054871 C-72.52362819 63.41930589 -72.53226013 65.19807626 -72.53907394 66.97685242 C-72.55089663 69.79311058 -72.57035634 72.60921772 -72.5921936 75.42541504 C-72.65370946 83.43053165 -72.70789916 91.43563022 -72.74121094 99.44091797 C-72.76215275 104.34216224 -72.79744601 109.24312652 -72.84196854 114.14421082 C-72.85612582 116.01007291 -72.86485036 117.87598448 -72.86802292 119.74189758 C-72.87293052 122.35101672 -72.89608233 124.95939148 -72.92333984 127.56835938 C-72.92033371 128.33734055 -72.91732758 129.10632172 -72.91423035 129.89860535 C-72.99958992 135.39931896 -74.31562416 138.49778547 -77.83984375 142.609375 C-81.06947006 145.30073026 -84.96080395 145.30752232 -88.98046875 145.28125 C-93.06537641 144.55083605 -95.76397525 142.01021414 -98.33984375 138.859375 C-99.62333884 135.00888972 -99.49551419 131.36886109 -99.50097656 127.35571289 C-99.50594147 126.4869754 -99.51090637 125.61823792 -99.51602173 124.72317505 C-99.53064952 121.84278574 -99.53744912 118.96245164 -99.54296875 116.08203125 C-99.5487231 114.07482401 -99.55448079 112.06761677 -99.5602417 110.06040955 C-99.57075577 105.84455103 -99.57659466 101.62871158 -99.58007812 97.4128418 C-99.58554019 92.03654753 -99.60951731 86.66050942 -99.63805008 81.28429508 C-99.65677518 77.13273919 -99.66188746 72.98124351 -99.663414 68.82964897 C-99.66642274 66.84950815 -99.67439044 64.86936793 -99.68759918 62.88926888 C-99.81410343 42.45341867 -96.22526205 25.32417013 -81.83227539 10.01367188 C-59.82963945 -11.89530394 -26.59431347 -15.56348963 0 0 Z " fill="#F1F1F5" transform="translate(403.33984375,122.140625)"/>
<path d="M0 0 C-0.72703125 0.25652344 -1.4540625 0.51304688 -2.203125 0.77734375 C-13.9646444 5.25576845 -27.14623803 13.29247605 -33 25 C-34.78515625 25.859375 -34.78515625 25.859375 -37.0625 26.75 C-47.19161184 31.1392818 -53.20392747 37.47729807 -57.55078125 47.61767578 C-59.17175095 52.0122162 -59.47188698 56.00500379 -59.51171875 60.65625 C-59.52966995 61.44398804 -59.54762115 62.23172607 -59.56611633 63.04333496 C-59.61976305 65.52883749 -59.65396616 68.0141532 -59.6875 70.5 C-59.72071357 72.19794242 -59.7552069 73.89586032 -59.79101562 75.59375 C-59.87784364 79.72918671 -59.93829756 83.86380906 -60 88 C-68.91 88 -77.82 88 -87 88 C-87.06942706 82.94982423 -87.12898752 77.90134964 -87.16479492 72.85107422 C-87.1797446 71.13845158 -87.20011186 69.42586629 -87.22631836 67.71337891 C-87.53993579 46.67026396 -82.98719139 29.58074352 -68 14 C-52.76000931 -0.62005887 -19.76639211 -13.17759474 0 0 Z " fill="#C5C5DF" transform="translate(348,117)"/>
<path d="M0 0 C0.96180176 0.00128906 1.92360352 0.00257812 2.91455078 0.00390625 C10.05686792 0.10031006 16.41608445 0.91250461 23.1875 3.3125 C20.52673635 5.08634243 17.89475276 6.52738995 15.0625 8 C6.33870654 12.75320145 -3.22710738 19.14171477 -7.8125 28.3125 C-9.66796875 29.0234375 -9.66796875 29.0234375 -12 29.6875 C-16.14746708 30.99549675 -19.30790882 32.68405662 -22.8125 35.3125 C-23.6375 35.84875 -24.4625 36.385 -25.3125 36.9375 C-29.08503669 40.52140985 -31.38724509 44.74155847 -33.8125 49.3125 C-34.14636719 49.92867187 -34.48023438 50.54484375 -34.82421875 51.1796875 C-37.93177484 58.00115208 -37.50711556 65.98327337 -37.8125 73.3125 C-46.7225 73.3125 -55.6325 73.3125 -64.8125 73.3125 C-65.4322022 53.17217851 -61.74672414 36.49020186 -48.20703125 20.83984375 C-42.13864687 14.43487688 -35.5609247 9.93622033 -27.75 5.9375 C-27.101521 5.60339111 -26.45304199 5.26928223 -25.78491211 4.92504883 C-17.39827269 0.83541733 -9.25101021 -0.05152869 0 0 Z " fill="#C3C4DE" transform="translate(174.8125,18.6875)"/>
<path d="M0 0 C0.33 0 0.66 0 1 0 C1 60.72 1 121.44 1 184 C-2.57824329 180.42175671 -3.35934426 175.13389841 -4.8125 170.375 C-5.16779785 169.21234619 -5.5230957 168.04969238 -5.88916016 166.85180664 C-8.19957745 159.10724174 -10.21559562 151.34700407 -11.875 143.4375 C-12.06553955 142.53757324 -12.2560791 141.63764648 -12.45239258 140.71044922 C-15.63049909 124.72936005 -16.4080683 108.94274257 -16.375 92.6875 C-16.37445618 91.67798279 -16.37391235 90.66846558 -16.37335205 89.62835693 C-16.29674085 58.60204774 -11.12328297 29.03097967 0 0 Z " fill="#364165" transform="translate(16,164)"/>
<path d="M0 0 C1.16015625 2.2421875 1.16015625 2.2421875 2 5 C3.21392339 7.5720753 4.44286296 10.13606217 5.68359375 12.6953125 C10.18103591 23.98562723 10.36994493 34.20465481 10.1875 46.1875 C10.17242146 47.9199102 10.15873868 49.65233314 10.14648438 51.38476562 C10.11631467 55.59042249 10.05755425 59.79427672 10 64 C1.09 64 -7.82 64 -17 64 C-17.05607422 60.60074219 -17.05607422 60.60074219 -17.11328125 57.1328125 C-17.15967073 54.90518273 -17.21084034 52.67770953 -17.26245117 50.45019531 C-17.29542955 48.91806791 -17.32354311 47.38582691 -17.34643555 45.85351562 C-17.55525886 32.24001267 -18.68423592 20.0986859 -28.9453125 10.10546875 C-30.58749765 8.68600912 -32.28845267 7.33500691 -34 6 C-25.61281834 -1.60088338 -10.81753834 -4.03432874 0 0 Z " fill="#C4C5DF" transform="translate(381,141)"/>
<path d="M0 0 C-0.81082031 0.40089844 -1.62164062 0.80179688 -2.45703125 1.21484375 C-20.10972865 10.27752076 -32.21410476 22.84017541 -39 41.79296875 C-41.63640388 50.98235728 -41.44952411 59.09143397 -42 69 C-58.83 69 -75.66 69 -93 69 C-87.8309013 62.10786839 -82.56917346 56.21105985 -76.5 50.1875 C-76.01200928 49.70099976 -75.52401855 49.21449951 -75.02124023 48.71325684 C-67.44358505 41.17714173 -59.69226385 34.23139207 -51 28 C-49.85444913 27.14980962 -48.70993929 26.29821499 -47.56640625 25.4453125 C-36.21621377 17.0631438 -24.15951988 10.06238504 -11.75 3.375 C-10.51600464 2.69920898 -10.51600464 2.69920898 -9.25708008 2.00976562 C-8.10115356 1.3977832 -8.10115356 1.3977832 -6.921875 0.7734375 C-6.23706055 0.40653809 -5.55224609 0.03963867 -4.84667969 -0.33837891 C-3 -1 -3 -1 0 0 Z " fill="#374266" transform="translate(152,23)"/>
<path d="M0 0 C20.46 0 40.92 0 62 0 C62 7.92 62 15.84 62 24 C59.97875 23.67 57.9575 23.34 55.875 23 C34.61378462 20.02984026 18.16459046 24.10124572 0 35 C0 23.45 0 11.9 0 0 Z " fill="#FC526C" transform="translate(285,92)"/>
<path d="M0 0 C0.83595703 0.00451172 1.67191406 0.00902344 2.53320312 0.01367188 C4.58466649 0.02539452 6.63609273 0.04332797 8.6875 0.0625 C8.9659375 0.77535156 9.244375 1.48820312 9.53125 2.22265625 C10.67200131 5.02443397 11.91154869 7.75748271 13.1875 10.5 C18.68815149 22.60143327 18.79635107 33.00037195 18.6875 46.0625 C9.7775 46.0625 0.8675 46.0625 -8.3125 46.0625 C-8.43625 42.164375 -8.43625 42.164375 -8.5625 38.1875 C-9.27124069 24.52707395 -14.47522324 15.59331954 -24.3125 6.0625 C-22.75398245 5.24238688 -21.19048284 4.43173787 -19.625 3.625 C-18.75488281 3.17253906 -17.88476562 2.72007813 -16.98828125 2.25390625 C-11.38944703 -0.23900534 -6.0203258 -0.0617713 0 0 Z " fill="#C4C5DF" transform="translate(221.3125,45.9375)"/>
<path d="M0 0 C5.41245968 0.86457233 7.91519207 4.76270231 11 9 C14.09268763 14.36276782 17.14507056 19.70561503 17.09765625 26.01171875 C17.09515869 26.69451904 17.09266113 27.37731934 17.09008789 28.08081055 C17.08098389 28.94101807 17.07187988 29.80122559 17.0625 30.6875 C17.041875 33.430625 17.02125 36.17375 17 39 C6.77 39 -3.46 39 -14 39 C-14.56964501 24.87280373 -13.96156585 15.27280297 -4.1875 4.25 C-2.80734183 2.81805776 -1.41705248 1.39544166 0 0 Z " fill="#394467" transform="translate(196,53)"/>
<path d="M0 0 C7.84383128 1.11655961 13.98008231 6.3618468 18.875 12.375 C24.63798385 20.32628668 27.16943563 27.85774353 27.09765625 37.609375 C27.0962413 38.33618469 27.09482635 39.06299438 27.09336853 39.81182861 C27.08778792 42.12459494 27.07523904 44.43726312 27.0625 46.75 C27.05748249 48.32161318 27.05292002 49.89322789 27.04882812 51.46484375 C27.03867733 55.30996372 27.01909832 59.15487248 27 63 C21.72 63 16.44 63 11 63 C10.97421875 60.49148437 10.9484375 57.98296875 10.921875 55.3984375 C10.8832607 52.91916554 10.83816391 50.44008816 10.79248047 47.9609375 C10.76457351 46.26214172 10.74321151 44.56322339 10.72900391 42.86425781 C10.609464 29.36421816 9.25864084 17.25473974 2.75 5.125 C1.96882813 3.64386719 1.96882813 3.64386719 1.171875 2.1328125 C0.59179688 1.07707031 0.59179688 1.07707031 0 0 Z " fill="#3A4568" transform="translate(380,142)"/>
<path d="M0 0 C-1.31184566 3.3974989 -2.80985668 6.61971336 -4.4375 9.875 C-9.90789383 22.01386227 -10.47926494 34.84266081 -10.6875 47.9375 C-10.72079663 49.4108351 -10.75529682 50.88414351 -10.79101562 52.35742188 C-10.87666632 55.90495423 -10.93789891 59.45167205 -11 63 C-15.95 63 -20.9 63 -26 63 C-26.09975053 58.05621051 -26.17187902 53.11302178 -26.21972656 48.16845703 C-26.23969699 46.49061869 -26.26688332 44.81284864 -26.30175781 43.13525391 C-26.56465561 30.15274218 -25.6027891 20.51108281 -17.0703125 10.11328125 C-12.7668063 5.720457 -6.49028511 0 0 0 Z " fill="#FE536D" transform="translate(314,142)"/>
<path d="M0 0 C7.46443494 3.73221747 12.16097666 10.23734259 15.30859375 17.859375 C16.90774162 22.8104091 17.13599516 27.53681425 17.09765625 32.70703125 C17.0962413 33.43242599 17.09482635 34.15782074 17.09336853 34.90519714 C17.08779931 37.2076745 17.07525261 39.51005235 17.0625 41.8125 C17.05748102 43.37955588 17.05291881 44.9466133 17.04882812 46.51367188 C17.03869354 50.34251651 17.01911241 54.17114769 17 58 C11.39 58 5.78 58 0 58 C0 38.86 0 19.72 0 0 Z " fill="#374266" transform="translate(347,147)"/>
<path d="M0 0 C0 19.14 0 38.28 0 58 C-5.28 58 -10.56 58 -16 58 C-16.13889808 52.94822543 -16.25794813 47.90324816 -16.32958984 42.85107422 C-16.35949222 41.13827903 -16.40023086 39.42563331 -16.45263672 37.71337891 C-16.88297797 23.27585168 -14.60174052 13.39783935 -4.515625 2.42578125 C-1.9369863 0 -1.9369863 0 0 0 Z " fill="#FC526C" transform="translate(347,147)"/>
<path d="M0 0 C-0.47050781 0.87140625 -0.94101563 1.7428125 -1.42578125 2.640625 C-8.69298721 16.39654672 -10.41434118 28.5386072 -11 44 C-16.94 44 -22.88 44 -29 44 C-29.59867427 30.1107569 -28.1564335 20.05485746 -18.96484375 8.97265625 C-15.69979794 5.69462815 -12.0171188 3.26473426 -8 1 C-7.33355469 0.59652344 -6.66710937 0.19304688 -5.98046875 -0.22265625 C-3.57026946 -1.16867136 -2.39782292 -0.85636533 0 0 Z " fill="#3A4468" transform="translate(166,48)"/>
<path d="M0 0 C7.21916046 0.37021336 12.40185215 4.76438441 17.6875 9.3125 C27.84956929 21.12247241 29.37974712 29.81011517 29 45 C23.06 45 17.12 45 11 45 C10.91363281 43.41832031 10.82726562 41.83664063 10.73828125 40.20703125 C10.00714377 28.64076617 9.30417299 18.46584582 4 8 C3.59910156 7.15824219 3.19820312 6.31648438 2.78515625 5.44921875 C1.8944979 3.6140188 0.95444865 1.80284745 0 0 Z " fill="#3A4568" transform="translate(229,47)"/>
<path d="M0 0 C-2.08293277 1.1257469 -4.16632908 2.25062083 -6.25 3.375 C-7.41015625 4.00148438 -8.5703125 4.62796875 -9.765625 5.2734375 C-12.16236626 6.55285735 -14.56088291 7.80459113 -17 9 C-17 8.01 -17 7.02 -17 6 C-14.73495035 4.80015203 -12.46410112 3.61505231 -10.1875 2.4375 C-9.54490234 2.09525391 -8.90230469 1.75300781 -8.24023438 1.40039062 C-3.33984375 -1.11328125 -3.33984375 -1.11328125 0 0 Z " fill="#40506F" transform="translate(152,23)"/>
</svg>
